# xmcd CD database file
#
# Track frame offsets:
#	150
#	9435
#	23342
#	39777
#	58508
#	73208
#	87358
#	102958
#	116908
#	131158
#	149326
#	164761
#	179196
#	192546
#	210313
#	232513
#
# Disc length: 3265 seconds
#
# Revision: 0
# Processed by: cddbd v1.5.2PL0 Copyright (c) Steve Scherf et al.
# Submitted via: CDex 1.51
#
DISCID=de0cbf10
DTITLE=Cattivo - 1133
DYEAR=1900
DGENRE=New Age
TTITLE0=Morphagnetta
TTITLE1=The Overthought
TTITLE2=Underwear Party
TTITLE3=Do You Take This Woman
TTITLE4=Diary of a Planet
TTITLE5=Alien
TTITLE6=New Appetite
TTITLE7=Jack Is Back
TTITLE8=Contemplating Revenge
TTITLE9=Brain
TTITLE10=The Inner Man
TTITLE11=Open Session
TTITLE12=Ruthless Agression
TTITLE13=Open Heart
TTITLE14=Bongo Fingers
TTITLE15=Outragnetta
EXTD=
EXTT0=
EXTT1=
EXTT2=
EXTT3=
EXTT4=
EXTT5=
EXTT6=
EXTT7=
EXTT8=
EXTT9=
EXTT10=
EXTT11=
EXTT12=
EXTT13=
EXTT14=
EXTT15=
PLAYORDER=
